<mxfile host="app.diagrams.net" agent="Mozilla/5.0 (Macintosh; Intel Mac OS X 10_15_7) AppleWebKit/605.1.15 (KHTML, like Gecko) Version/18.3 Safari/605.1.15" version="26.0.16">
  <diagram id="C5RBs43oDa-KdzZeNtuy" name="Page-1">
    <mxGraphModel dx="1010" dy="691" grid="1" gridSize="10" guides="1" tooltips="1" connect="1" arrows="1" fold="1" page="1" pageScale="1" pageWidth="827" pageHeight="1169" math="0" shadow="0">
      <root>
        <mxCell id="WIyWlLk6GJQsqaUBKTNV-0" />
        <mxCell id="WIyWlLk6GJQsqaUBKTNV-1" parent="WIyWlLk6GJQsqaUBKTNV-0" />
        <mxCell id="X4Kgz1TjLcY_7Dk20HuE-0" style="edgeStyle=orthogonalEdgeStyle;rounded=0;orthogonalLoop=1;jettySize=auto;html=1;exitX=0.5;exitY=1;exitDx=0;exitDy=0;" edge="1" parent="WIyWlLk6GJQsqaUBKTNV-1">
          <mxGeometry relative="1" as="geometry">
            <mxPoint x="120" y="200" as="sourcePoint" />
            <mxPoint x="120" y="200" as="targetPoint" />
          </mxGeometry>
        </mxCell>
        <mxCell id="X4Kgz1TjLcY_7Dk20HuE-1" value="Album" style="rounded=0;whiteSpace=wrap;html=1;" vertex="1" parent="WIyWlLk6GJQsqaUBKTNV-1">
          <mxGeometry x="40" y="40" width="230" height="40" as="geometry" />
        </mxCell>
        <mxCell id="X4Kgz1TjLcY_7Dk20HuE-2" value="&lt;div style=&quot;line-height: 18px; white-space: pre;&quot;&gt;&lt;div style=&quot;&quot;&gt; # yearReleased : int&lt;/div&gt;&lt;font face=&quot;Helvetica&quot;&gt;&lt;div style=&quot;&quot;&gt; # artist String&lt;/div&gt;&lt;div style=&quot;&quot;&gt; # albumTitle : String&lt;/div&gt;&lt;div style=&quot;&quot;&gt; # genre : String&lt;/div&gt;&lt;div style=&quot;&quot;&gt; - songsOnAlbum : ArrayList&amp;lt;&amp;gt;();&lt;/div&gt;&lt;/font&gt;&lt;/div&gt;" style="rounded=0;whiteSpace=wrap;html=1;align=left;" vertex="1" parent="WIyWlLk6GJQsqaUBKTNV-1">
          <mxGeometry x="40" y="80" width="230" height="90" as="geometry" />
        </mxCell>
        <mxCell id="X4Kgz1TjLcY_7Dk20HuE-3" value="Song" style="rounded=0;whiteSpace=wrap;html=1;" vertex="1" parent="WIyWlLk6GJQsqaUBKTNV-1">
          <mxGeometry x="40" y="390" width="230" height="40" as="geometry" />
        </mxCell>
        <mxCell id="X4Kgz1TjLcY_7Dk20HuE-4" value="&lt;div style=&quot;line-height: 18px; white-space: pre;&quot;&gt;&lt;div style=&quot;&quot;&gt;&lt;font face=&quot;Helvetica&quot;&gt; - title: String&lt;/font&gt;&lt;/div&gt;&lt;div&gt;&lt;font face=&quot;Helvetica&quot;&gt; - rating: int&lt;/font&gt;&lt;/div&gt;&lt;div&gt;&lt;font face=&quot;Helvetica&quot;&gt; - emojiRatings: String[]&lt;/font&gt;&lt;/div&gt;&lt;div&gt;&lt;font face=&quot;Helvetica&quot;&gt; - album: Album&lt;/font&gt;&lt;/div&gt;&lt;/div&gt;" style="rounded=0;whiteSpace=wrap;html=1;align=left;" vertex="1" parent="WIyWlLk6GJQsqaUBKTNV-1">
          <mxGeometry x="40" y="430" width="230" height="70" as="geometry" />
        </mxCell>
        <mxCell id="X4Kgz1TjLcY_7Dk20HuE-12" style="edgeStyle=orthogonalEdgeStyle;rounded=0;orthogonalLoop=1;jettySize=auto;html=1;entryX=0.5;entryY=0;entryDx=0;entryDy=0;" edge="1" parent="WIyWlLk6GJQsqaUBKTNV-1" source="X4Kgz1TjLcY_7Dk20HuE-5" target="X4Kgz1TjLcY_7Dk20HuE-3">
          <mxGeometry relative="1" as="geometry" />
        </mxCell>
        <mxCell id="X4Kgz1TjLcY_7Dk20HuE-13" value="extends" style="edgeLabel;html=1;align=center;verticalAlign=middle;resizable=0;points=[];" vertex="1" connectable="0" parent="X4Kgz1TjLcY_7Dk20HuE-12">
          <mxGeometry x="-0.1733" relative="1" as="geometry">
            <mxPoint x="1" as="offset" />
          </mxGeometry>
        </mxCell>
        <mxCell id="X4Kgz1TjLcY_7Dk20HuE-5" value="&lt;div&gt;&lt;font face=&quot;Helvetica&quot;&gt;&amp;nbsp;+ Album(albumTitle: String, artist: String, genre: String, yearReleased: int)&lt;/font&gt;&lt;/div&gt;&lt;div&gt;&lt;font face=&quot;Helvetica&quot;&gt;&amp;nbsp;+ Album(album: Album)&lt;/font&gt;&lt;/div&gt;&lt;div&gt;&lt;font face=&quot;Helvetica&quot;&gt;&amp;nbsp;+ getYear(): int&lt;/font&gt;&lt;/div&gt;&lt;div&gt;&lt;font face=&quot;Helvetica&quot;&gt;&amp;nbsp;+ getArtist(): String&lt;/font&gt;&lt;/div&gt;&lt;div&gt;&lt;font face=&quot;Helvetica&quot;&gt;&amp;nbsp;+ getGenre(): String&lt;/font&gt;&lt;/div&gt;&lt;div&gt;&lt;font face=&quot;Helvetica&quot;&gt;&amp;nbsp;+ getTitle(): String&amp;nbsp;&lt;/font&gt;&lt;/div&gt;&lt;div&gt;&lt;font face=&quot;Helvetica&quot;&gt;&amp;nbsp;+ addSong(song: Song): void&lt;/font&gt;&lt;/div&gt;&lt;div&gt;&lt;font face=&quot;Helvetica&quot;&gt;&amp;nbsp;+ getAlbumSongs(): ArrayList&amp;lt;Song&amp;gt;&amp;nbsp;&lt;/font&gt;&lt;/div&gt;&lt;div&gt;&lt;font face=&quot;Helvetica&quot;&gt;&amp;nbsp;+ toString(): String&lt;/font&gt;&lt;/div&gt;&lt;div style=&quot;&quot;&gt;&lt;font face=&quot;Helvetica&quot;&gt;&amp;nbsp;+ equals(obj: Object): boolean&lt;/font&gt;&lt;/div&gt;" style="rounded=0;whiteSpace=wrap;html=1;align=left;" vertex="1" parent="WIyWlLk6GJQsqaUBKTNV-1">
          <mxGeometry x="40" y="170" width="230" height="170" as="geometry" />
        </mxCell>
        <mxCell id="X4Kgz1TjLcY_7Dk20HuE-8" value="&lt;div&gt;&lt;font face=&quot;Helvetica&quot;&gt;&amp;nbsp;+ Song(title: String, album: Album)&lt;/font&gt;&lt;/div&gt;&lt;div&gt;&lt;font face=&quot;Helvetica&quot;&gt;&amp;nbsp;+ Song(song: Song)&lt;/font&gt;&lt;/div&gt;&lt;div&gt;&lt;font face=&quot;Helvetica&quot;&gt;&amp;nbsp;+ getRating(): int&lt;/font&gt;&lt;/div&gt;&lt;div&gt;&lt;font face=&quot;Helvetica&quot;&gt;&amp;nbsp;+ getTitle(): String&lt;/font&gt;&lt;/div&gt;&lt;div&gt;&lt;font face=&quot;Helvetica&quot;&gt;&amp;nbsp;+ getAlbum(): Album&lt;/font&gt;&lt;/div&gt;&lt;div&gt;&lt;font face=&quot;Helvetica&quot;&gt;&amp;nbsp;+ isFavorite(): boolean&lt;/font&gt;&lt;/div&gt;&lt;div&gt;&lt;font face=&quot;Helvetica&quot;&gt;&amp;nbsp;+ toString(): String&lt;/font&gt;&lt;/div&gt;&lt;div&gt;&lt;font face=&quot;Helvetica&quot;&gt;&amp;nbsp;+ setRating(rating: int): void&lt;/font&gt;&lt;/div&gt;&lt;div&gt;&lt;font face=&quot;Helvetica&quot;&gt;equals(obj: Object): boolean&lt;/font&gt;&lt;/div&gt;" style="rounded=0;whiteSpace=wrap;html=1;align=left;" vertex="1" parent="WIyWlLk6GJQsqaUBKTNV-1">
          <mxGeometry x="40" y="500" width="230" height="140" as="geometry" />
        </mxCell>
        <mxCell id="X4Kgz1TjLcY_7Dk20HuE-9" value="LibraryModel" style="rounded=0;whiteSpace=wrap;html=1;" vertex="1" parent="WIyWlLk6GJQsqaUBKTNV-1">
          <mxGeometry x="288" y="40" width="251" height="40" as="geometry" />
        </mxCell>
        <mxCell id="X4Kgz1TjLcY_7Dk20HuE-10" value="&lt;div style=&quot;line-height: 18px; white-space: pre;&quot;&gt;&lt;div style=&quot;&quot;&gt;&lt;font face=&quot;Helvetica&quot;&gt; - instance: LibraryModel (static)&lt;br&gt; - ms: MusicStore&lt;br&gt; - songs: ArrayList&amp;lt;Song&amp;gt;&lt;br&gt; - playlists: ArrayList&amp;lt;Playlist&amp;gt;&lt;/font&gt;&lt;br&gt;&lt;/div&gt;&lt;/div&gt;" style="rounded=0;whiteSpace=wrap;html=1;align=left;" vertex="1" parent="WIyWlLk6GJQsqaUBKTNV-1">
          <mxGeometry x="288" y="80" width="251" height="80" as="geometry" />
        </mxCell>
        <mxCell id="X4Kgz1TjLcY_7Dk20HuE-11" value="&lt;div&gt;&amp;nbsp;+ getInstance(): LibraryModel &amp;nbsp; &amp;nbsp; &amp;nbsp; &amp;nbsp; &amp;nbsp; &amp;nbsp;&lt;/div&gt;&lt;div&gt;&amp;nbsp;+ addSong(song: Song): void &amp;nbsp; &amp;nbsp; &amp;nbsp; &amp;nbsp; &amp;nbsp; &amp;nbsp; &amp;nbsp;&lt;/div&gt;&lt;div&gt;&amp;nbsp;+ addAlbum(album: Album): void &amp;nbsp; &amp;nbsp; &amp;nbsp; &amp;nbsp; &amp;nbsp; &amp;nbsp;&lt;/div&gt;&lt;div&gt;&amp;nbsp;+ addSongToPlaylist(song: Song, name: &amp;nbsp;String): String&amp;nbsp;&lt;/div&gt;&lt;div&gt;&amp;nbsp;+ setRating(song: Song, rating: int): void&amp;nbsp;&lt;/div&gt;&lt;div&gt;&amp;nbsp;+ hasAlbum(album: Album): boolean &amp;nbsp; &amp;nbsp; &amp;nbsp; &amp;nbsp;&amp;nbsp;&lt;/div&gt;&lt;div&gt;&amp;nbsp;+ getSongs(): ArrayList&amp;lt;Song&amp;gt; &amp;nbsp; &amp;nbsp; &amp;nbsp; &amp;nbsp; &amp;nbsp; &amp;nbsp;&lt;/div&gt;&lt;div&gt;&amp;nbsp;+ getAlbums(): ArrayList&amp;lt;String&amp;gt; &amp;nbsp; &amp;nbsp; &amp;nbsp; &amp;nbsp;&amp;nbsp;&lt;/div&gt;&lt;div&gt;&amp;nbsp;+ getArtists(): ArrayList&amp;lt;String&amp;gt; &amp;nbsp; &amp;nbsp; &amp;nbsp; &amp;nbsp;&lt;/div&gt;&lt;div&gt;&amp;nbsp;+ getFavoriteSongs(): ArrayList&amp;lt;Song&amp;gt; &amp;nbsp; &amp;nbsp;&lt;/div&gt;&lt;div&gt;&amp;nbsp;+ getPlaylists(): ArrayList&amp;lt;Playlist&amp;gt; &amp;nbsp; &amp;nbsp;&lt;/div&gt;&lt;div&gt;&amp;nbsp;+ createPlaylist(name: String): String &amp;nbsp;&amp;nbsp;&lt;/div&gt;&lt;div&gt;&amp;nbsp;+ deletePlaylist(name: String): String &amp;nbsp;&amp;nbsp;&lt;/div&gt;&lt;div&gt;&amp;nbsp;+ removeSongFromPlaylist(song: Song, &amp;nbsp;name: String): String&amp;nbsp;&lt;/div&gt;&lt;div&gt;&amp;nbsp;+ getSongsByTitle(title: String): &amp;nbsp;ArrayList&amp;lt;Song&amp;gt;&amp;nbsp;&lt;/div&gt;&lt;div&gt;&amp;nbsp;+ getAlbumsByTitle(title: String): &amp;nbsp;ArrayList&amp;lt;Album&amp;gt;&amp;nbsp;&lt;/div&gt;&lt;div&gt;&amp;nbsp;+ getSongsByArtist(artist: String): ArrayList&amp;lt;Song&amp;gt;&amp;nbsp;&lt;/div&gt;&lt;div&gt;&amp;nbsp;+ getAlbumsByArtist(artist: String): ArrayList&amp;lt;Album&amp;gt;&amp;nbsp;&lt;/div&gt;" style="rounded=0;whiteSpace=wrap;html=1;align=left;" vertex="1" parent="WIyWlLk6GJQsqaUBKTNV-1">
          <mxGeometry x="288" y="160" width="251" height="350" as="geometry" />
        </mxCell>
        <mxCell id="X4Kgz1TjLcY_7Dk20HuE-17" value="StoreModel" style="rounded=0;whiteSpace=wrap;html=1;" vertex="1" parent="WIyWlLk6GJQsqaUBKTNV-1">
          <mxGeometry x="560" y="40" width="251" height="40" as="geometry" />
        </mxCell>
        <mxCell id="X4Kgz1TjLcY_7Dk20HuE-18" value="&lt;div style=&quot;line-height: 18px; white-space: pre;&quot;&gt;&lt;div style=&quot;&quot;&gt; - instance: MusicStore&lt;br/&gt; - albumList: ArrayList&amp;lt;Album&amp;gt;&lt;br/&gt; - songList: ArrayList&amp;lt;Song&amp;gt;&lt;br&gt;&lt;/div&gt;&lt;/div&gt;" style="rounded=0;whiteSpace=wrap;html=1;align=left;" vertex="1" parent="WIyWlLk6GJQsqaUBKTNV-1">
          <mxGeometry x="560" y="80" width="251" height="60" as="geometry" />
        </mxCell>
        <mxCell id="X4Kgz1TjLcY_7Dk20HuE-19" value="&lt;div&gt;&amp;nbsp;+ getInstance(): MusicStore&lt;/div&gt;&lt;div&gt;&amp;nbsp;- generateDataset(): void&lt;/div&gt;&lt;div&gt;&amp;nbsp;- addAlbumToList(album: Album): void&lt;/div&gt;&lt;div&gt;&amp;nbsp;- addSongToList(song: Song): void&lt;/div&gt;&lt;div&gt;&amp;nbsp;# getSong(song: Song): Song&lt;/div&gt;&lt;div&gt;&amp;nbsp;# getAlbum(album: Album): Album&lt;/div&gt;&lt;div&gt;&amp;nbsp;+ getSongsByTitle(title: String): &amp;nbsp;ArrayList&amp;lt;Song&amp;gt;&lt;/div&gt;&lt;div&gt;&amp;nbsp;+ getSongsByArtist(artist: String): &amp;nbsp;ArrayList&amp;lt;Song&amp;gt;&lt;/div&gt;&lt;div&gt;&amp;nbsp;+ getAlbumsByTitle(title: String): &amp;nbsp;ArrayList&amp;lt;Album&amp;gt;&lt;/div&gt;&lt;div&gt;&amp;nbsp;+ getAlbumsByArtist(artist: String): &amp;nbsp;ArrayList&amp;lt;Album&amp;gt;&lt;/div&gt;&lt;div&gt;&amp;nbsp;+ getAllSongs(): ArrayList&amp;lt;Song&amp;gt;&lt;/div&gt;&lt;div&gt;&amp;nbsp;+ getAllAlbums(): ArrayList&amp;lt;Album&amp;gt;&lt;/div&gt;&lt;div&gt;&amp;nbsp;+ getAllArtists(): ArrayList&amp;lt;String&amp;gt;&lt;/div&gt;" style="rounded=0;whiteSpace=wrap;html=1;align=left;" vertex="1" parent="WIyWlLk6GJQsqaUBKTNV-1">
          <mxGeometry x="560" y="140" width="251" height="250" as="geometry" />
        </mxCell>
        <mxCell id="X4Kgz1TjLcY_7Dk20HuE-20" value="Playlist" style="rounded=0;whiteSpace=wrap;html=1;" vertex="1" parent="WIyWlLk6GJQsqaUBKTNV-1">
          <mxGeometry x="560" y="410" width="250" height="40" as="geometry" />
        </mxCell>
        <mxCell id="X4Kgz1TjLcY_7Dk20HuE-21" value="&lt;div style=&quot;line-height: 18px; white-space: pre;&quot;&gt;&lt;div style=&quot;&quot;&gt; - plName: String&lt;br/&gt; - plSonglist: ArrayList&amp;lt;Song&amp;gt;&lt;br&gt;&lt;/div&gt;&lt;/div&gt;" style="rounded=0;whiteSpace=wrap;html=1;align=left;" vertex="1" parent="WIyWlLk6GJQsqaUBKTNV-1">
          <mxGeometry x="560" y="450" width="250" height="50" as="geometry" />
        </mxCell>
        <mxCell id="X4Kgz1TjLcY_7Dk20HuE-22" value="&lt;div&gt;&amp;nbsp;+ getName(): String&lt;/div&gt;&lt;div&gt;&amp;nbsp;+ addAlbum(album: Album): void&lt;/div&gt;&lt;div&gt;&amp;nbsp;+ addSong(song: Song): void&lt;/div&gt;&lt;div&gt;&amp;nbsp;+ removeSong(song: Song): Song&lt;/div&gt;&lt;div&gt;&amp;nbsp;+ removeSong(index: int): Song&lt;/div&gt;&lt;div&gt;&amp;nbsp;+ toString(): String&lt;/div&gt;" style="rounded=0;whiteSpace=wrap;html=1;align=left;" vertex="1" parent="WIyWlLk6GJQsqaUBKTNV-1">
          <mxGeometry x="560" y="500" width="250" height="100" as="geometry" />
        </mxCell>
      </root>
    </mxGraphModel>
  </diagram>
</mxfile>
